<svg xmlns="http://www.w3.org/2000/svg" xmlns:xlink="http://www.w3.org/1999/xlink" width="129" height="89.046630859375" viewBox="0 0 129 89.046630859375" fill="none"><g opacity="1"  transform="translate(0 0.046630859375)  rotate(0)"><path id="路径 2" fill-rule="evenodd" fill="url(#linear_0)" opacity="1" d="M15 0L65 48L115 0L65 23.49L15 0Z"></path><g opacity="1"  transform="translate(15 0)  rotate(0)"><mask id="mask-0" fill="white"><path d="M50 89L50 47.27L0 0L50 89Z"  ></path></mask><g mask="url(#mask-0)"><path id="路径 1" fill-rule="evenodd" style="fill:#98BFC9" opacity="1" d="M50 89L50 47.27L0 0L50 89Z"></path></g><g mask="url(#mask-0)"><g id="圆形 1" filter="url(#filter_5)"><path id="圆形 1" fill-rule="evenodd" style="fill:#1F6273" opacity="1" d="M49 0C42.92 0 38 16.57 38 37C38 57.43 42.92 74 49 74C55.08 74 60 57.43 60 37C60 16.57 55.08 0 49 0Z"></path></g></g><g mask="url(#mask-0)"><path id="圆形 1" fill-rule="evenodd" style="fill:#CCCCCC" opacity="1" d="M-692 -4C-719.61 -4 -742 18.39 -742 46C-742 73.61 -719.61 96 -692 96C-664.39 96 -642 73.61 -642 46C-642 18.39 -664.39 -4 -692 -4Z"></path></g></g><g opacity="1"  transform="translate(65 0)  rotate(0)"><mask id="mask-1" fill="white"><path d="M0 47.27L0 89L50 0L0 47.27Z"  ></path></mask><g mask="url(#mask-1)"><path id="路径 1" fill-rule="evenodd" style="fill:#95BAC4" opacity="1" d="M0 47.27L0 89L50 0L0 47.27Z"></path></g><g mask="url(#mask-1)"><g id="圆形 1" filter="url(#filter_10)"><path id="圆形 1" fill-rule="evenodd" style="fill:#1F6273" opacity="1" d="M3 20C-4.18 20 -10 32.76 -10 48.5C-10 64.24 -4.18 77 3 77C10.18 77 16 64.24 16 48.5C16 32.76 10.18 20 3 20Z"></path></g></g></g><path id="路径 3" style="fill:url(#linear_1); opacity:100" d="M16.0135,-0.04664l49.5,46.50004l-1.027,1.0932l-49.5,-46.49996zM64.25,88.5v-41.5h1.5v41.5zM64.4865,46.4534l49.4995,-46.50004l1.028,1.09328l-49.5005,46.49996z"></path><path id="圆形 3" fill-rule="evenodd" style="fill:#FFFFFF" opacity="0" d="M57.7531 18.9541C26.8145 27.244 4.97496 46.0783 8.9763 61.0115C12.9776 75.9447 41.3083 81.3359 72.2469 73.0459C103.186 64.7559 125.025 45.9217 121.024 30.9885C117.022 16.0553 88.6917 10.6641 57.7531 18.9541Z"></path><path id="圆形 3" style="fill:url(#linear_2); opacity:100" d="M58.2707,20.8859M58.2707,20.8859c-15.174,4.06587 -27.40813,10.10597 -36.7024,18.1203c-8.89092,7.66653 -12.44429,14.8291 -10.6601,21.4877c1.78413,6.65853 8.4427,11.08477 19.9757,13.2787c12.05627,2.29353 25.6714,1.40737 40.8454,-2.6585c15.17407,-4.06593 27.4083,-10.10603 36.7027,-18.1203c8.89067,-7.6666 12.444,-14.82917 10.66,-21.4877c-1.784,-6.65853 -8.44263,-11.0848 -19.9759,-13.2788c-12.0562,-2.29347 -25.67133,-1.40727 -40.8454,2.6586zM57.2354,17.0222c15.76333,-4.22373 29.97273,-5.13187 42.6282,-2.7244c13.1776,2.5068 20.87507,7.89783 23.0924,16.1731c2.21733,8.2752 -1.75333,16.7926 -11.912,25.5522c-9.75633,8.41267 -22.51613,14.7309 -38.2794,18.9547c-15.76327,4.22373 -29.97267,5.13187 -42.6282,2.7244c-13.17727,-2.50673 -20.87458,-7.89777 -23.09194,-16.1731c-2.21735,-8.27527 1.75319,-16.79267 11.91164,-25.5522c9.75627,-8.41267 22.51603,-14.7309 38.2793,-18.9547z"></path><g id="圆形 4" filter="url(#filter_14)"><path id="圆形 4" fill-rule="evenodd" style="fill:#94B9C3" opacity="1" d="M120 31C117.24 31 115 33.24 115 36C115 38.76 117.24 41 120 41C122.76 41 125 38.76 125 36C125 33.24 122.76 31 120 31Z"></path><path  id="圆形 4" style="fill:#BADEE8; opacity:1;" d="M120,32c-2.209,0 -4,1.7909 -4,4c0,2.2091 1.791,4 4,4c2.209,0 4,-1.7909 4,-4c0,-2.2091 -1.791,-4 -4,-4zM120,30c3.314,0 6,2.6863 6,6c0,3.3137 -2.686,6 -6,6c-3.314,0 -6,-2.6863 -6,-6c0,-3.3137 2.686,-6 6,-6z"></path></g><g opacity="1"  transform="translate(0 52)  rotate(0)"><mask id="mask-2" fill="white"><path d="M11.5 0C5.15 0 0 5.15 0 11.5C0 17.85 5.15 23 11.5 23C17.85 23 23 17.85 23 11.5C23 5.15 17.85 0 11.5 0Z"  ></path></mask><g mask="url(#mask-2)"><g id="圆形 4" filter="url(#filter_16)"><path id="圆形 4" fill-rule="evenodd" fill="url(#linear_3)" opacity="1" d="M11.5 0C5.15 0 0 5.15 0 11.5C0 17.85 5.15 23 11.5 23C17.85 23 23 17.85 23 11.5C23 5.15 17.85 0 11.5 0Z"></path></g></g><g mask="url(#mask-2)"><g id="圆形 5" filter="url(#filter_18)"><path id="圆形 5" fill-rule="evenodd" style="fill:#FFFFFF" opacity="1" d="M16 15C12.69 15 10 17.69 10 21C10 24.31 12.69 27 16 27C19.31 27 22 24.31 22 21C22 17.69 19.31 15 16 15Z"></path></g></g><g mask="url(#mask-2)"><g id="圆形 5" filter="url(#filter_20)"><path id="圆形 5" fill-rule="evenodd" style="fill:#FFFFFF" opacity="1" d="M3 -6C-0.31 -6 -3 -3.31 -3 0C-3 3.31 -0.31 6 3 6C6.31 6 9 3.31 9 0C9 -3.31 6.31 -6 3 -6Z"></path></g></g></g></g><defs><radialGradient id="linear_0" cx="50%" cy="50%" fx="50%" fy="50%" r="0.5" gradientTransform="translate(0.5 0.5) scale(0.48000000000000015 1) rotate(90) scale(1 1) translate(-0.5 -0.5)" ><stop offset="0" stop-color="#97C0CE" stop-opacity="1" /><stop offset="1" stop-color="#FFFFFF" stop-opacity="1" /></radialGradient><filter id="filter_5" x="22" y="-16" width="54" height="106" filterUnits="userSpaceOnUse" color-interpolation-filters="sRGB"><feFlood flood-opacity="0" result="BackgroundImageFix"/>
          <feBlend mode="normal" in="SourceGraphic" in2="BackgroundImageFix" result="shape"/>
          <feGaussianBlur stdDeviation="8" result="effect1_foregroundBlur" /></filter><filter id="filter_10" x="-26" y="4" width="58" height="89" filterUnits="userSpaceOnUse" color-interpolation-filters="sRGB"><feFlood flood-opacity="0" result="BackgroundImageFix"/>
          <feBlend mode="normal" in="SourceGraphic" in2="BackgroundImageFix" result="shape"/>
          <feGaussianBlur stdDeviation="8" result="effect1_foregroundBlur" /></filter><radialGradient id="linear_1" cx="50%" cy="50%" fx="50%" fy="50%" r="0.5" gradientTransform="translate(0.5 0.5) scale(0.8888888888888887 1) rotate(90) scale(1 1) translate(-0.5 -0.5)" ><stop offset="0" stop-color="#FFFFFF" stop-opacity="1" /><stop offset="1" stop-color="#FFFFFF" stop-opacity="0" /></radialGradient><linearGradient id="linear_2" x1="50%" y1="100%" x2="54.547999999999995%" y2="11.325000000000001%" gradientUnits="objectBoundingBox"><stop offset="0" stop-color="#FFFFFF" stop-opacity="1" /><stop offset="1" stop-color="#FFFFFF" stop-opacity="0.01" /></linearGradient><filter id="filter_14" x="113" y="29" width="14" height="14" filterUnits="userSpaceOnUse" color-interpolation-filters="sRGB"><feFlood flood-opacity="0" result="BackgroundImageFix"/>
          <feBlend mode="normal" in="SourceGraphic" in2="BackgroundImageFix" result="shape"/>
          <feGaussianBlur stdDeviation="1" result="effect1_foregroundBlur" /></filter><radialGradient id="linear_3" cx="50%" cy="50%" fx="50%" fy="50%" r="0.7502899999999999" gradientTransform="translate(0.5 0.5) scale(1 1) rotate(90) scale(1 1.71) translate(-0.5 -0.5)" ><stop offset="0" stop-color="#78B2C2" stop-opacity="1" /><stop offset="1" stop-color="#F7F5FF" stop-opacity="1" /></radialGradient><filter id="filter_16" x="-2" y="-4" width="27" height="31" filterUnits="userSpaceOnUse" color-interpolation-filters="sRGB"><feFlood flood-opacity="0" result="feFloodId"/>
          <feColorMatrix in="SourceAlpha" type="matrix" values="0 0 0 0 0 0 0 0 0 0 0 0 0 0 0 0 0 0 127 0" result="hardAlpha"/>
          
          <feOffset dx="0" dy="2"/>
          <feGaussianBlur stdDeviation="1"/>
          <feComposite in2="hardAlpha" operator="arithmetic" k2="-1" k3="1"/>
          <feColorMatrix type="matrix" values="0 0 0 0 1 0 0 0 0 1 0 0 0 0 1 0 0 0 0.25 0"/>
          <feBlend mode="normal" in2="filter_feFlood" result="filter_feFlood_1"/>
          <feBlend mode="normal" in="SourceGraphic" in2="filter_16" result="shape"/></filter><filter id="filter_18" x="3" y="8" width="26" height="26" filterUnits="userSpaceOnUse" color-interpolation-filters="sRGB"><feFlood flood-opacity="0" result="BackgroundImageFix"/>
          <feBlend mode="normal" in="SourceGraphic" in2="BackgroundImageFix" result="shape"/>
          <feGaussianBlur stdDeviation="3.5" result="effect1_foregroundBlur" /></filter><filter id="filter_20" x="-10" y="-13" width="26" height="26" filterUnits="userSpaceOnUse" color-interpolation-filters="sRGB"><feFlood flood-opacity="0" result="BackgroundImageFix"/>
          <feBlend mode="normal" in="SourceGraphic" in2="BackgroundImageFix" result="shape"/>
          <feGaussianBlur stdDeviation="3.5" result="effect1_foregroundBlur" /></filter></defs></svg>