<svg xmlns="http://www.w3.org/2000/svg" xmlns:xlink="http://www.w3.org/1999/xlink" width="129" height="89.046630859375" viewBox="0 0 129 89.046630859375" fill="none"><g opacity="1"  transform="translate(0 0.046630859375)  rotate(0)"><g opacity="1"  transform="translate(15 0)  rotate(0)"><mask id="mask-0" fill="white"><path d="M0 0L50 48L100 0L50 23.49L0 0Z"  ></path></mask><g mask="url(#mask-0)"><path id="路径 2" fill-rule="evenodd" fill="url(#linear_0)" opacity="1" d="M0 0L50 48L100 0L50 23.49L0 0Z"></path></g><g mask="url(#mask-0)"><g id="圆形 2" filter="url(#filter_4)"><path id="圆形 2" fill-rule="evenodd" style="fill:#C46ECC" opacity="1" d="M57 14C53.13 14 50 17.13 50 21C50 24.87 53.13 28 57 28C60.87 28 64 24.87 64 21C64 17.13 60.87 14 57 14Z"></path></g></g></g><g opacity="1"  transform="translate(15 0)  rotate(0)"><mask id="mask-1" fill="white"><path d="M50 89L50 47.27L0 0L50 89Z"  ></path></mask><g mask="url(#mask-1)"><path id="路径 1" fill-rule="evenodd" style="fill:#CF6EFF" opacity="1" d="M50 89L50 47.27L0 0L50 89Z"></path></g><g mask="url(#mask-1)"><g id="圆形 1" filter="url(#filter_8)"><path id="圆形 1" fill-rule="evenodd" style="fill:#EDD2B2" opacity="1" d="M17.9936 -8.15503C12.965 -7.24711 11.825 9.79659 15.4549 29.9015C19.0848 50.0065 26.1129 65.5755 31.1416 64.6676C36.1801 63.7579 37.3102 46.716 33.6803 26.611C30.0504 6.50606 23.0322 -9.06472 17.9936 -8.15503Z"></path></g></g><g mask="url(#mask-1)"><g id="圆形 1" filter="url(#filter_10)"><path id="圆形 1" fill-rule="evenodd" style="fill:#32F0FA" opacity="1" d="M32.0692 51.9331C21.898 49.2077 12.6157 50.8927 11.3293 55.6933C10.043 60.494 17.2393 66.5944 27.4105 69.3198C37.572 72.0425 46.8544 70.3576 48.1408 65.5569C49.4271 60.7563 42.2308 54.6559 32.0692 51.9331Z"></path></g></g><g mask="url(#mask-1)"><g id="圆形 1" filter="url(#filter_12)"><path id="圆形 1" fill-rule="evenodd" style="fill:#3E33FF" opacity="1" d="M49 0C42.92 0 38 16.57 38 37C38 57.43 42.92 74 49 74C55.08 74 60 57.43 60 37C60 16.57 55.08 0 49 0Z"></path></g></g></g><g opacity="1"  transform="translate(65 0)  rotate(0)"><mask id="mask-2" fill="white"><path d="M0 47.27L0 89L50 0L0 47.27Z"  ></path></mask><g mask="url(#mask-2)"><path id="路径 1" fill-rule="evenodd" style="fill:#D2994E" opacity="1" d="M0 47.27L0 89L50 0L0 47.27Z"></path></g><g mask="url(#mask-2)"><g id="圆形 1" filter="url(#filter_16)"><path id="圆形 1" fill-rule="evenodd" style="fill:#85DCFF" opacity="1" d="M42.0847 2.58937C35.0486 1.15924 26.3575 14.6994 22.6726 32.8287C18.9877 50.958 21.7034 66.8167 28.7395 68.2468C35.7757 69.677 44.4668 56.1368 48.1516 38.0075C51.8365 19.8782 49.1209 4.01949 42.0847 2.58937Z"></path></g></g><g mask="url(#mask-2)"><g id="圆形 1" filter="url(#filter_18)"><path id="圆形 1" fill-rule="evenodd" style="fill:#C187FF" opacity="1" d="M6.47745 62.473C-0.968379 69.9188 -4.15036 78.8001 -0.636039 82.3144C2.87828 85.8287 11.7595 82.6467 19.2054 75.2009C26.6441 67.7621 29.8261 58.8809 26.3118 55.3666C22.7975 51.8522 13.9162 55.0342 6.47745 62.473Z"></path></g></g><g mask="url(#mask-2)"><g id="圆形 1" filter="url(#filter_20)"><path id="圆形 1" fill-rule="evenodd" style="fill:#3F21FF" opacity="1" d="M3 20C-4.18 20 -10 32.76 -10 48.5C-10 64.24 -4.18 77 3 77C10.18 77 16 64.24 16 48.5C16 32.76 10.18 20 3 20Z"></path></g></g></g><path id="路径 3" style="fill:url(#linear_1); opacity:100" d="M16.0135,-0.04664l49.5,46.50004l-1.027,1.0932l-49.5,-46.49996zM64.25,88.5v-41.5h1.5v41.5zM64.4865,46.4534l49.4995,-46.50004l1.028,1.09328l-49.5005,46.49996z"></path><path id="圆形 3" style="fill:url(#linear_2); opacity:100" d="M58.2707,20.8859M58.2707,20.8859c-15.174,4.06587 -27.40813,10.10597 -36.7024,18.1203c-8.89092,7.66653 -12.44429,14.8291 -10.6601,21.4877c1.78413,6.65853 8.4427,11.08477 19.9757,13.2787c12.05627,2.29353 25.6714,1.40737 40.8454,-2.6585c15.17407,-4.06593 27.4083,-10.10603 36.7027,-18.1203c8.89067,-7.6666 12.444,-14.82917 10.66,-21.4877c-1.784,-6.65853 -8.44263,-11.0848 -19.9759,-13.2788c-12.0562,-2.29347 -25.67133,-1.40727 -40.8454,2.6586zM57.2354,17.0222c15.76333,-4.22373 29.97273,-5.13187 42.6282,-2.7244c13.1776,2.5068 20.87507,7.89783 23.0924,16.1731c2.21733,8.2752 -1.75333,16.7926 -11.912,25.5522c-9.75633,8.41267 -22.51613,14.7309 -38.2794,18.9547c-15.76327,4.22373 -29.97267,5.13187 -42.6282,2.7244c-13.17727,-2.50673 -20.87458,-7.89777 -23.09194,-16.1731c-2.21735,-8.27527 1.75319,-16.79267 11.91164,-25.5522c9.75627,-8.41267 22.51603,-14.7309 38.2793,-18.9547z"></path><g id="圆形 4" filter="url(#filter_24)"><path id="圆形 4" fill-rule="evenodd" style="fill:#3828DD" opacity="1" d="M120 31C117.24 31 115 33.24 115 36C115 38.76 117.24 41 120 41C122.76 41 125 38.76 125 36C125 33.24 122.76 31 120 31Z"></path><path  id="圆形 4" style="fill:#9EA9FF; opacity:1;" d="M120,32c-2.209,0 -4,1.7909 -4,4c0,2.2091 1.791,4 4,4c2.209,0 4,-1.7909 4,-4c0,-2.2091 -1.791,-4 -4,-4zM120,30c3.314,0 6,2.6863 6,6c0,3.3137 -2.686,6 -6,6c-3.314,0 -6,-2.6863 -6,-6c0,-3.3137 2.686,-6 6,-6z"></path></g><g opacity="1"  transform="translate(0 52)  rotate(0)"><mask id="mask-3" fill="white"><path d="M11.5 0C5.15 0 0 5.15 0 11.5C0 17.85 5.15 23 11.5 23C17.85 23 23 17.85 23 11.5C23 5.15 17.85 0 11.5 0Z"  ></path></mask><g mask="url(#mask-3)"><path id="圆形 4" fill-rule="evenodd" fill="url(#linear_3)" opacity="1" d="M11.5 0C5.15 0 0 5.15 0 11.5C0 17.85 5.15 23 11.5 23C17.85 23 23 17.85 23 11.5C23 5.15 17.85 0 11.5 0Z"></path></g><g mask="url(#mask-3)"><g id="圆形 5" filter="url(#filter_28)"><path id="圆形 5" fill-rule="evenodd" style="fill:#FFFFFF" opacity="1" d="M16 15C12.69 15 10 17.69 10 21C10 24.31 12.69 27 16 27C19.31 27 22 24.31 22 21C22 17.69 19.31 15 16 15Z"></path></g></g><g mask="url(#mask-3)"><g id="圆形 5" filter="url(#filter_30)"><path id="圆形 5" fill-rule="evenodd" style="fill:#FFFFFF" opacity="1" d="M3 -6C-0.31 -6 -3 -3.31 -3 0C-3 3.31 -0.31 6 3 6C6.31 6 9 3.31 9 0C9 -3.31 6.31 -6 3 -6Z"></path></g></g></g></g><defs><radialGradient id="linear_0" cx="50%" cy="50%" fx="50%" fy="50%" r="0.5" gradientTransform="translate(0.5 0.5) scale(0.48000000000000015 1) rotate(90) scale(1 1) translate(-0.5 -0.5)" ><stop offset="0" stop-color="#6D53FC" stop-opacity="1" /><stop offset="1" stop-color="#FFFFFF" stop-opacity="1" /></radialGradient><filter id="filter_4" x="45" y="9" width="24" height="24" filterUnits="userSpaceOnUse" color-interpolation-filters="sRGB"><feFlood flood-opacity="0" result="BackgroundImageFix"/>
          <feBlend mode="normal" in="SourceGraphic" in2="BackgroundImageFix" result="shape"/>
          <feGaussianBlur stdDeviation="2.5" result="effect1_foregroundBlur" /></filter><filter id="filter_8" x="-2.1190185546875" y="-17.509765625" width="40.52125769442211" height="96" filterUnits="userSpaceOnUse" color-interpolation-filters="sRGB"><feFlood flood-opacity="0" result="BackgroundImageFix"/>
          <feBlend mode="normal" in="SourceGraphic" in2="BackgroundImageFix" result="shape"/>
          <feGaussianBlur stdDeviation="5.5" result="effect1_foregroundBlur" /></filter><filter id="filter_10" x="-0.34130859375" y="33" width="66.11359285231939" height="46" filterUnits="userSpaceOnUse" color-interpolation-filters="sRGB"><feFlood flood-opacity="0" result="BackgroundImageFix"/>
          <feBlend mode="normal" in="SourceGraphic" in2="BackgroundImageFix" result="shape"/>
          <feGaussianBlur stdDeviation="7" result="effect1_foregroundBlur" /></filter><filter id="filter_12" x="22" y="-16" width="54" height="106" filterUnits="userSpaceOnUse" color-interpolation-filters="sRGB"><feFlood flood-opacity="0" result="BackgroundImageFix"/>
          <feBlend mode="normal" in="SourceGraphic" in2="BackgroundImageFix" result="shape"/>
          <feGaussianBlur stdDeviation="8" result="effect1_foregroundBlur" /></filter><filter id="filter_16" x="16.34521484375" y="-13" width="52" height="93" filterUnits="userSpaceOnUse" color-interpolation-filters="sRGB"><feFlood flood-opacity="0" result="BackgroundImageFix"/>
          <feBlend mode="normal" in="SourceGraphic" in2="BackgroundImageFix" result="shape"/>
          <feGaussianBlur stdDeviation="6.5" result="effect1_foregroundBlur" /></filter><filter id="filter_18" x="-23" y="59.950439453125" width="70.11359285231939" height="50" filterUnits="userSpaceOnUse" color-interpolation-filters="sRGB"><feFlood flood-opacity="0" result="BackgroundImageFix"/>
          <feBlend mode="normal" in="SourceGraphic" in2="BackgroundImageFix" result="shape"/>
          <feGaussianBlur stdDeviation="8" result="effect1_foregroundBlur" /></filter><filter id="filter_20" x="-26" y="4" width="58" height="89" filterUnits="userSpaceOnUse" color-interpolation-filters="sRGB"><feFlood flood-opacity="0" result="BackgroundImageFix"/>
          <feBlend mode="normal" in="SourceGraphic" in2="BackgroundImageFix" result="shape"/>
          <feGaussianBlur stdDeviation="8" result="effect1_foregroundBlur" /></filter><radialGradient id="linear_1" cx="50%" cy="50%" fx="50%" fy="50%" r="0.5" gradientTransform="translate(0.5 0.5) scale(0.8888888888888887 1) rotate(90) scale(1 1) translate(-0.5 -0.5)" ><stop offset="0" stop-color="#FFFFFF" stop-opacity="1" /><stop offset="1" stop-color="#FFFFFF" stop-opacity="0" /></radialGradient><linearGradient id="linear_2" x1="50%" y1="100%" x2="54.547999999999995%" y2="11.325000000000001%" gradientUnits="objectBoundingBox"><stop offset="0" stop-color="#FFFFFF" stop-opacity="1" /><stop offset="1" stop-color="#FFFFFF" stop-opacity="0.01" /></linearGradient><filter id="filter_24" x="113" y="29" width="14" height="14" filterUnits="userSpaceOnUse" color-interpolation-filters="sRGB"><feFlood flood-opacity="0" result="BackgroundImageFix"/>
          <feBlend mode="normal" in="SourceGraphic" in2="BackgroundImageFix" result="shape"/>
          <feGaussianBlur stdDeviation="1" result="effect1_foregroundBlur" /></filter><radialGradient id="linear_3" cx="50%" cy="50%" fx="50%" fy="50%" r="0.7502899999999999" gradientTransform="translate(0.5 0.5) scale(1 1) rotate(90) scale(1 1.71) translate(-0.5 -0.5)" ><stop offset="0" stop-color="#584DFF" stop-opacity="1" /><stop offset="1" stop-color="#F7F5FF" stop-opacity="1" /></radialGradient><filter id="filter_28" x="3" y="8" width="26" height="26" filterUnits="userSpaceOnUse" color-interpolation-filters="sRGB"><feFlood flood-opacity="0" result="BackgroundImageFix"/>
          <feBlend mode="normal" in="SourceGraphic" in2="BackgroundImageFix" result="shape"/>
          <feGaussianBlur stdDeviation="3.5" result="effect1_foregroundBlur" /></filter><filter id="filter_30" x="-10" y="-13" width="26" height="26" filterUnits="userSpaceOnUse" color-interpolation-filters="sRGB"><feFlood flood-opacity="0" result="BackgroundImageFix"/>
          <feBlend mode="normal" in="SourceGraphic" in2="BackgroundImageFix" result="shape"/>
          <feGaussianBlur stdDeviation="3.5" result="effect1_foregroundBlur" /></filter></defs></svg>